<svg xmlns="http://www.w3.org/2000/svg" viewBox="0 0 64 64">
  <rect width="64" height="64" rx="14" fill="#071c2c"/>
  <rect x="4" y="4" width="56" height="56" rx="11" fill="none" stroke="#c99a4a" stroke-opacity=".55" stroke-width="1.5"/>
  <path d="M14 40c4-3 9-4.5 12-3.5 2 .7 2.6 2 5.8 2 3.2 0 4-1.3 6-2 3-1 8 .5 12 3.5-4 1.5-8 1-10.5-.4-1.9-1-3.6-1.3-5.2-.6-1 .4-1.6 1.3-2.3 1.3-.7 0-1.3-.9-2.3-1.3-1.6-.7-3.3-.4-5.2.6C22 41 18 41.5 14 40z" fill="#e2c17c"/>
  <text x="32" y="30" font-family="Georgia,serif" font-size="26" font-style="italic" font-weight="700" fill="#c99a4a" text-anchor="middle">B</text>
</svg>
